HIERARCHY
ROOT Hips
{
	OFFSET -0.0000 0.0000 0.0000
	CHANNELS 6 Xposition Yposition Zposition Zrotation Xrotation Yrotation
	JOINT LeftUpperLeg
	{
		OFFSET -5.2299 -9.3936 -2.7607
		CHANNELS 3 Zrotation Xrotation Yrotation
		JOINT LeftLowerLeg
		{
			OFFSET -5.8867 -41.6441 -0.6557
			CHANNELS 3 Zrotation Xrotation Yrotation
			JOINT LeftFoot
			{
				OFFSET 4.1738 -43.7584 -2.9512
				CHANNELS 3 Zrotation Xrotation Yrotation
				JOINT LeftToe
				{
					OFFSET -4.9294 -6.5279 12.6259
					CHANNELS 3 Zrotation Xrotation Yrotation
					End Site
					{
						OFFSET 0.0000 5.0000 0.0000
					}
				}
			}
		}
	}
	JOINT RightUpperLeg
	{
		OFFSET 5.7193 -10.6548 -2.2218
		CHANNELS 3 Zrotation Xrotation Yrotation
		JOINT RightLowerLeg
		{
			OFFSET 4.8074 -39.7560 -1.4061
			CHANNELS 3 Zrotation Xrotation Yrotation
			JOINT RightFoot
			{
				OFFSET -1.4489 -44.6852 -1.8030
				CHANNELS 3 Zrotation Xrotation Yrotation
				JOINT RightToe
				{
					OFFSET 4.0575 -6.5287 12.7076
					CHANNELS 3 Zrotation Xrotation Yrotation
					End Site
					{
						OFFSET 0.0000 5.0000 0.0000
					}
				}
			}
		}
	}
	JOINT Spine
	{
		OFFSET -0.0000 11.2930 0.0000
		CHANNELS 3 Zrotation Xrotation Yrotation
		JOINT Spine1
		{
			OFFSET -0.0000 14.5636 0.0000
			CHANNELS 3 Zrotation Xrotation Yrotation
			JOINT Spine2
			{
				OFFSET -0.0000 5.6082 0.0000
				CHANNELS 3 Zrotation Xrotation Yrotation
				JOINT Neck
				{
					OFFSET -0.0000 17.1365 0.0000
					CHANNELS 3 Zrotation Xrotation Yrotation
					JOINT Head
					{
						OFFSET -2.4654 17.5391 2.4463
						CHANNELS 3 Zrotation Xrotation Yrotation
						End Site
						{
							OFFSET 0.0000 5.0000 0.0000
						}
					}
				}
				JOINT LeftShoulder
				{
					OFFSET -4.7725 8.7643 -0.8375
					CHANNELS 3 Zrotation Xrotation Yrotation
					JOINT LeftUpperArm
					{
						OFFSET -12.6285 5.7680 -1.3885
						CHANNELS 3 Zrotation Xrotation Yrotation
						JOINT LeftLowerArm
						{
							OFFSET -27.2907 -6.9853 -3.9094
							CHANNELS 3 Zrotation Xrotation Yrotation
							JOINT LeftHand
							{
								OFFSET -27.6174 2.1254 -0.2478
								CHANNELS 3 Zrotation Xrotation Yrotation
								End Site
								{
									OFFSET 0.0000 5.0000 0.0000
								}
							}
						}
					}
				}
				JOINT RightShoulder
				{
					OFFSET 4.6636 8.6612 -1.4864
					CHANNELS 3 Zrotation Xrotation Yrotation
					JOINT RightUpperArm
					{
						OFFSET 10.9342 5.3674 -0.9118
						CHANNELS 3 Zrotation Xrotation Yrotation
						JOINT RightLowerArm
						{
							OFFSET 29.2029 -3.5440 -2.4565
							CHANNELS 3 Zrotation Xrotation Yrotation
							JOINT RightHand
							{
								OFFSET 27.1879 -0.4835 -1.6445
								CHANNELS 3 Zrotation Xrotation Yrotation
								End Site
								{
									OFFSET 0.0000 5.0000 0.0000
								}
							}
						}
					}
				}
			}
		}
	}
}
MOTION
Frames: 16
Frame Time: 0.033333
27.155130 98.479820 174.418488 0.536016 -3.897225 5.401787 -0.282077 23.047830 3.332189 0.157072 14.148030 0.165995 4.482709 9.352492 3.159555 10.444420 -19.917523 7.806608 -1.395763 -27.128791 -5.304553 -2.371424 12.476355 0.243274 -13.896573 23.967324 7.260524 5.806790 -6.861386 -3.892745 6.885427 12.975277 1.367862 -9.662058 -2.655380 6.376845 4.037163 5.782264 -5.041068 -2.066907 -17.931103 -1.590796 -0.116001 2.810464 0.152362 2.969463 1.829136 7.905232 59.700300 4.182163 17.804534 6.009061 -1.527402 21.707660 5.897952 -2.775678 3.924371 -6.677612 -3.278047 -1.139722 -62.989701 36.899951 -10.265918 -2.726206 1.445994 -16.782422 -7.425985 -18.578048 2.476231
28.344954 99.002808 178.922272 2.707619 -2.771780 5.165046 -4.022459 17.077950 4.313087 1.078177 24.242822 0.370308 6.666884 21.031094 1.001882 10.409717 -24.130262 9.620892 -4.124197 -26.180165 -5.198334 -2.775366 14.178298 1.065973 -12.220546 22.120831 5.732382 6.057372 -5.093368 -3.385032 2.601592 11.881601 2.377680 -6.722585 -3.219805 5.191754 2.590335 6.339356 -4.467933 -1.830814 -18.108325 -2.017858 -0.089362 2.948940 0.097222 2.246621 1.064469 7.780142 61.806072 4.573330 16.466070 6.141568 -1.330175 20.389212 6.023830 -4.032835 3.586898 -5.032872 -3.446498 -1.382232 -63.693495 37.538438 -10.294498 -3.118175 1.620838 -17.215852 -7.024945 -17.127761 2.995712
29.314053 99.567291 183.116043 4.621693 -1.746637 5.036140 -7.126597 9.353355 5.254782 1.781191 35.256529 -0.061212 11.763508 32.503179 -2.430745 7.048939 -17.283001 6.587445 -6.612423 -25.052073 -5.317975 -3.234829 15.925246 1.862354 -9.666733 17.295910 3.914493 5.181249 -4.213386 -3.418271 -1.705840 10.895190 2.962832 -3.251748 -3.830381 3.847904 1.312452 7.328279 -3.915499 -1.880641 -18.832293 -2.168007 -0.107231 2.733733 -0.053612 2.090189 0.257429 7.917278 62.716679 5.073891 15.513327 6.205892 -1.050246 19.737889 6.514554 -4.734947 3.459701 -4.220813 -3.740904 -1.710632 -63.200069 38.180400 -10.935532 -3.082441 1.839282 -18.074744 -7.201635 -15.745350 3.294990
30.089199 100.005890 187.012405 6.098205 -1.069192 5.235562 -8.943801 1.483804 5.524392 2.053471 45.229680 -0.348231 16.472639 39.343624 -5.517259 4.418769 -7.544133 1.994822 -8.609865 -23.281564 -5.544780 -3.485777 16.710944 2.539322 -7.736420 13.153866 2.350479 4.192111 -3.454900 -3.355088 -5.550230 10.351916 2.873805 0.227975 -4.294485 2.601202 0.346532 8.334123 -3.292324 -2.336031 -19.631106 -2.508457 0.122284 2.005343 0.198347 2.213949 -0.300656 7.873351 62.861641 5.513467 15.085281 6.168699 -0.646141 19.589565 7.062245 -5.207679 3.674565 -4.064921 -4.038089 -2.188121 -61.294863 38.862688 -12.574268 -2.931376 2.039125 -19.090870 -7.253039 -14.668899 3.471392
30.753199 100.470390 190.711090 7.113120 -0.834265 6.080308 -10.094409 -5.817351 4.232373 3.118623 54.132870 -0.296712 15.430413 36.313992 -5.250181 4.117134 -6.727987 1.717822 -10.197960 -20.652892 -6.416519 -3.577031 16.594837 3.128080 -6.248367 9.886691 1.063580 3.133607 -2.879482 -3.194131 -8.525776 10.365977 2.160658 3.283210 -4.336801 1.435758 -0.473453 8.695530 -2.622691 -2.740919 -19.859229 -3.086381 0.302406 1.081314 0.723330 2.609182 -0.525983 7.470654 62.690026 5.986866 14.806286 6.153339 -0.275652 19.457022 7.257311 -5.337207 4.027185 -4.061165 -4.048648 -2.702314 -58.278063 39.438670 -15.341891 -2.792363 2.158387 -19.838294 -7.164862 -13.759792 3.707786
31.363621 100.937607 194.259888 7.948028 -1.016007 7.395636 -11.444638 -12.148739 1.508934 4.125904 59.515597 -0.414569 13.165875 31.870606 -5.425542 3.859155 -7.373454 2.204143 -11.550277 -17.045660 -7.617410 -3.450530 15.440951 3.601953 -4.878436 7.316254 -0.040684 1.965441 -2.418561 -3.057795 -10.946387 10.867568 1.013708 5.915543 -4.108914 0.402187 -1.090650 8.660486 -1.981631 -3.011550 -19.656119 -3.764730 0.450994 0.511736 1.443258 2.827886 -0.656066 6.921413 62.664679 6.508795 14.360267 6.121837 0.043395 19.194697 7.125654 -5.176128 4.167353 -3.812441 -3.934985 -3.181206 -55.050049 39.656472 -18.849053 -2.711785 2.084950 -20.039947 -7.128479 -12.640610 3.961337
31.934088 101.382187 197.713058 8.786977 -1.468740 8.942266 -13.409011 -17.295875 -2.305883 4.330234 61.071057 -0.227518 11.266627 28.476425 -6.594989 3.475154 -8.048596 2.694529 -12.759322 -12.537875 -8.933196 -3.043441 13.170823 3.927126 -3.562355 5.412095 -0.993896 0.620793 -2.172265 -2.977249 -13.087139 11.669335 -0.275639 8.198382 -3.584929 -0.585933 -1.509125 8.214521 -1.371850 -3.123682 -19.114361 -4.441051 0.520637 0.185146 2.124398 2.928476 -0.646861 6.273034 62.739225 7.011168 13.694272 6.107634 0.243133 18.903139 6.814003 -4.658336 3.977774 -3.350851 -3.717440 -3.612087 -52.091600 39.242629 -22.537870 -2.684796 1.881050 -20.017541 -7.104942 -11.246454 4.090344
32.453339 101.754448 201.198822 9.517461 -2.069696 10.524679 -15.597257 -21.160849 -6.393566 3.766687 59.265616 0.376707 10.120666 25.817477 -7.552057 3.046742 -8.589411 3.117042 -13.561862 -7.511948 -9.993250 -2.489031 10.270574 4.143626 -2.370705 3.921785 -2.057567 -0.845971 -2.132223 -2.898821 -14.892778 12.669045 -1.404010 10.197141 -2.920091 -1.586755 -1.773556 7.455186 -0.753576 -3.118062 -18.376659 -5.076057 0.551461 -0.093303 2.797826 3.068910 -0.444785 5.514440 62.742980 7.432432 12.822644 6.135852 0.360422 18.738943 6.457992 -4.017840 3.636505 -2.725809 -3.449125 -4.096540 -49.731011 38.231506 -25.952442 -2.720545 1.609013 -20.068196 -7.065325 -9.904260 4.006268
32.907192 102.031433 204.779144 9.960147 -2.666222 11.983682 -17.224133 -23.854101 -9.775995 2.793379 54.388674 1.101677 9.970305 23.487976 -7.656773 2.497550 -9.122202 3.482368 -13.723352 -2.529834 -10.599753 -1.999680 7.374275 4.278656 -1.447377 2.655517 -3.256573 -2.259363 -2.174204 -2.792735 -16.214427 13.738469 -2.199056 11.968936 -2.399768 -2.606879 -2.006050 6.693068 -0.133304 -3.000829 -17.666651 -5.629411 0.574699 -0.372620 3.504806 3.370714 -0.205870 4.758388 62.601398 7.906777 11.773700 6.232730 0.442636 18.719673 6.124147 -3.267571 3.394306 -1.969573 -3.320169 -4.627889 -48.112873 36.938661 -28.833223 -2.752282 1.303556 -20.399650 -6.982986 -9.069685 3.730571
33.280052 102.154282 208.470840 10.147559 -3.093508 13.349295 -18.030366 -25.499764 -12.104560 1.633273 46.694353 1.630311 10.898576 21.796283 -7.466427 1.563569 -9.763241 3.819773 -13.366218 1.879841 -11.094219 -1.742742 5.128361 4.319305 -0.717376 1.270098 -4.252861 -3.482983 -2.171945 -2.698621 -17.093745 14.761846 -2.750018 13.500838 -2.252639 -3.562111 -2.261235 6.249596 0.415223 -2.744973 -17.155444 -6.059538 0.659532 -0.766762 4.172707 3.824015 -0.071831 4.110918 62.425090 8.542534 10.614667 6.367059 0.523282 18.721171 5.887546 -2.583065 3.437574 -1.225880 -3.318348 -5.081850 -46.905012 35.745918 -31.313238 -2.638690 0.985976 -21.197410 -6.773150 -9.142575 3.154701
33.560333 102.098129 212.161926 10.238127 -3.296683 14.653159 -18.084702 -26.053001 -13.256447 0.520863 36.359232 1.725036 12.399529 21.558489 -7.985908 0.168558 -10.338802 4.234962 -12.755547 5.502334 -11.732619 -1.720770 3.747392 4.262001 0.044946 -0.307175 -5.015823 -4.510053 -2.050913 -2.638577 -17.732490 15.626349 -3.205783 14.817827 -2.360695 -4.351271 -2.598502 6.119818 0.855065 -2.327805 -16.816213 -6.334587 0.805412 -1.317221 4.650342 4.328732 -0.073118 3.586740 62.454115 9.391220 9.469127 6.480948 0.575882 18.543943 5.708413 -1.993995 3.592854 -0.614968 -3.362672 -5.343166 -45.820794 34.891913 -33.523084 -2.364103 0.678027 -22.465227 -6.355783 -10.072398 2.388159
33.779301 101.844528 215.798111 10.478296 -3.377716 15.961908 -17.654167 -25.242508 -13.213411 -0.531367 23.920021 1.463428 14.402390 22.355806 -9.337990 -1.571444 -10.714053 4.817073 -12.229576 8.536561 -12.395302 -1.916722 3.188496 4.121894 1.127770 -2.113177 -5.728343 -5.470442 -1.793211 -2.517682 -18.511667 16.309721 -3.560506 16.120714 -2.562900 -4.967136 -3.107875 6.214533 1.230365 -1.812101 -16.500352 -6.598994 0.959267 -2.070298 4.788966 4.755222 -0.187536 3.114666 62.876002 10.474707 8.356122 6.555878 0.575407 18.047238 5.637930 -1.316625 3.562650 -0.065892 -3.450423 -5.483842 -45.038992 34.431299 -35.330207 -1.991176 0.326873 -24.094523 -5.849643 -11.307813 1.587877
33.979946 101.366188 219.531876 11.067652 -3.386246 17.280730 -17.314181 -23.040665 -12.421352 -1.602746 10.401973 0.967928 17.248750 22.542387 -11.033222 -3.159757 -10.828142 5.694787 -11.746280 11.355626 -13.044748 -2.313390 3.150416 3.869713 2.227753 -4.220454 -6.304644 -6.518756 -1.417790 -2.248438 -19.764361 16.737563 -3.715628 17.577169 -2.791103 -5.387851 -3.836284 6.519071 1.544914 -1.285792 -16.115428 -7.032031 1.085595 -2.887565 4.705023 4.922854 -0.484943 2.646351 63.860752 11.511598 7.057349 6.689175 0.553167 17.250403 5.817656 -0.235920 3.253742 0.601289 -3.600145 -5.647967 -44.906644 34.304948 -36.492986 -1.706082 -0.082697 -26.104536 -5.510958 -12.383813 0.725692
34.193226 100.628281 223.551437 11.865155 -3.261449 18.469689 -17.342070 -20.443920 -11.579208 -2.681879 -2.219305 0.416391 20.713851 20.925224 -13.180400 -3.766168 -10.963102 6.871562 -11.447878 14.266542 -13.679089 -2.728404 3.141793 3.483177 3.418941 -6.565911 -6.664152 -7.542138 -1.150515 -1.928896 -21.323368 16.768434 -3.659444 19.050189 -3.001893 -5.592868 -4.640940 6.950252 1.741072 -0.815252 -15.671420 -7.487939 1.132930 -3.336436 4.668235 4.928514 -0.778665 2.123659 65.117493 12.342487 5.685231 6.916458 0.553375 16.316634 6.315763 1.028601 3.030125 1.346445 -3.803224 -5.894791 -45.761237 34.297461 -36.677606 -1.594021 -0.389821 -28.419075 -5.450450 -13.239609 -0.430064
34.384876 99.761971 227.790024 12.463848 -2.978600 19.270107 -17.648805 -19.541683 -11.255488 -3.357344 -9.490176 0.071821 22.864863 17.808764 -15.228130 -2.844077 -11.321911 7.725169 -11.009511 17.222374 -14.127135 -2.893264 2.853753 3.108569 4.227919 -8.620723 -6.920264 -8.180496 -1.353454 -1.842620 -22.602279 16.502473 -3.451609 20.114254 -3.167201 -5.630959 -5.178866 7.368307 1.809793 -0.422179 -15.595179 -7.716644 1.034937 -3.060685 4.754798 5.431719 -1.095663 1.602943 65.773316 13.048534 4.609878 7.111441 0.497589 15.140323 7.209391 1.933458 2.561154 1.525305 -4.030806 -6.250491 -47.277136 34.057903 -35.612671 -1.472095 -0.365076 -30.757894 -5.790794 -13.761931 -1.762028
34.532200 99.040131 232.239410 12.784057 -2.631503 19.683558 -18.103082 -20.354101 -12.032783 -3.331533 -10.124693 0.160587 23.345312 15.393887 -16.439819 -1.858004 -11.600609 8.051061 -10.535128 20.327753 -14.397365 -2.494429 2.175091 2.724349 4.223175 -9.176102 -6.972062 -8.294739 -1.828824 -2.020469 -23.466505 16.309539 -3.249507 20.824159 -3.377749 -5.788320 -5.403781 7.734364 1.929262 -0.183320 -16.040190 -7.574950 1.062247 -2.708817 4.230109 6.356612 -1.413783 1.150224 65.711723 13.454548 4.098742 7.049422 0.575562 13.665255 8.479052 2.137164 1.529270 1.126949 -4.109543 -6.703071 -48.934234 33.626466 -33.745753 -1.333558 -0.326808 -32.618956 -5.834780 -13.750338 -2.456411
